<mxfile host="app.diagrams.net" modified="2022-06-30T15:16:02.146Z" agent="5.0 (Macintosh; Intel Mac OS X 10_15_7) AppleWebKit/537.36 (KHTML, like Gecko) Chrome/103.0.0.0 Safari/537.36" etag="9kdcGSWW6ubQ7JPcRAFm" version="20.0.4" type="github">
  <diagram id="C5RBs43oDa-KdzZeNtuy" name="Page-1">
    <mxGraphModel dx="947" dy="1039" grid="1" gridSize="10" guides="1" tooltips="1" connect="1" arrows="1" fold="1" page="1" pageScale="1" pageWidth="1200" pageHeight="1600" math="0" shadow="0">
      <root>
        <mxCell id="WIyWlLk6GJQsqaUBKTNV-0" />
        <mxCell id="WIyWlLk6GJQsqaUBKTNV-1" parent="WIyWlLk6GJQsqaUBKTNV-0" />
        <mxCell id="zkfFHV4jXpPFQw0GAbJ--0" value="welcome" style="swimlane;fontStyle=0;align=center;verticalAlign=middle;childLayout=stackLayout;horizontal=1;startSize=26;horizontalStack=0;resizeParent=1;resizeLast=0;collapsible=1;marginBottom=0;rounded=0;shadow=0;strokeWidth=1;fillColor=none;swimlaneFillColor=none;labelBackgroundColor=none;" parent="WIyWlLk6GJQsqaUBKTNV-1" vertex="1">
          <mxGeometry x="40" y="40" width="160" height="240" as="geometry">
            <mxRectangle x="40" y="70" width="160" height="26" as="alternateBounds" />
          </mxGeometry>
        </mxCell>
        <mxCell id="rXzRcfoX-HvQge2d-3iK-28" value="이제누가공지해주냐에&lt;br&gt;오신 걸 환영합니다!" style="rounded=0;whiteSpace=wrap;html=1;labelBackgroundColor=none;fillColor=none;" vertex="1" parent="zkfFHV4jXpPFQw0GAbJ--0">
          <mxGeometry y="26" width="160" height="174" as="geometry" />
        </mxCell>
        <mxCell id="zkfFHV4jXpPFQw0GAbJ--26" value="" style="endArrow=open;shadow=0;strokeWidth=1;rounded=0;endFill=1;edgeStyle=elbowEdgeStyle;elbow=vertical;" parent="zkfFHV4jXpPFQw0GAbJ--0" target="rXzRcfoX-HvQge2d-3iK-42" edge="1">
          <mxGeometry relative="1" as="geometry">
            <mxPoint x="160" y="220" as="sourcePoint" />
            <mxPoint x="270" y="140" as="targetPoint" />
            <Array as="points">
              <mxPoint x="210" y="130" />
            </Array>
          </mxGeometry>
        </mxCell>
        <mxCell id="zkfFHV4jXpPFQw0GAbJ--27" value="" style="resizable=0;align=left;verticalAlign=bottom;labelBackgroundColor=none;fontSize=12;" parent="zkfFHV4jXpPFQw0GAbJ--26" connectable="0" vertex="1">
          <mxGeometry x="-1" relative="1" as="geometry">
            <mxPoint y="4" as="offset" />
          </mxGeometry>
        </mxCell>
        <mxCell id="zkfFHV4jXpPFQw0GAbJ--29" value="회원가입 클릭" style="text;html=1;resizable=0;points=[];;align=center;verticalAlign=middle;labelBackgroundColor=none;rounded=0;shadow=0;strokeWidth=1;fontSize=12;" parent="zkfFHV4jXpPFQw0GAbJ--26" vertex="1" connectable="0">
          <mxGeometry x="0.5" y="49" relative="1" as="geometry">
            <mxPoint x="-30" y="40" as="offset" />
          </mxGeometry>
        </mxCell>
        <mxCell id="rXzRcfoX-HvQge2d-3iK-34" value="" style="shape=table;html=1;whiteSpace=wrap;startSize=0;container=1;collapsible=0;childLayout=tableLayout;rounded=1;labelBackgroundColor=none;fillColor=none;" vertex="1" parent="zkfFHV4jXpPFQw0GAbJ--0">
          <mxGeometry y="200" width="160" height="40" as="geometry" />
        </mxCell>
        <mxCell id="rXzRcfoX-HvQge2d-3iK-35" value="" style="shape=tableRow;horizontal=0;startSize=0;swimlaneHead=0;swimlaneBody=0;top=0;left=0;bottom=0;right=0;collapsible=0;dropTarget=0;fillColor=none;points=[[0,0.5],[1,0.5]];portConstraint=eastwest;rounded=1;labelBackgroundColor=none;html=0;" vertex="1" parent="rXzRcfoX-HvQge2d-3iK-34">
          <mxGeometry width="160" height="40" as="geometry" />
        </mxCell>
        <mxCell id="rXzRcfoX-HvQge2d-3iK-36" value="비로그인" style="shape=partialRectangle;html=1;whiteSpace=wrap;connectable=0;fillColor=none;top=0;left=0;bottom=0;right=0;overflow=hidden;rounded=1;labelBackgroundColor=none;" vertex="1" parent="rXzRcfoX-HvQge2d-3iK-35">
          <mxGeometry width="50" height="40" as="geometry">
            <mxRectangle width="50" height="40" as="alternateBounds" />
          </mxGeometry>
        </mxCell>
        <mxCell id="rXzRcfoX-HvQge2d-3iK-37" value="로그인" style="shape=partialRectangle;html=1;whiteSpace=wrap;connectable=0;fillColor=none;top=0;left=0;bottom=0;right=0;overflow=hidden;rounded=1;labelBackgroundColor=none;" vertex="1" parent="rXzRcfoX-HvQge2d-3iK-35">
          <mxGeometry x="50" width="57" height="40" as="geometry">
            <mxRectangle width="57" height="40" as="alternateBounds" />
          </mxGeometry>
        </mxCell>
        <mxCell id="rXzRcfoX-HvQge2d-3iK-38" value="회원가입" style="shape=partialRectangle;html=1;whiteSpace=wrap;connectable=0;fillColor=none;top=0;left=0;bottom=0;right=0;overflow=hidden;rounded=1;labelBackgroundColor=none;" vertex="1" parent="rXzRcfoX-HvQge2d-3iK-35">
          <mxGeometry x="107" width="53" height="40" as="geometry">
            <mxRectangle width="53" height="40" as="alternateBounds" />
          </mxGeometry>
        </mxCell>
        <mxCell id="rXzRcfoX-HvQge2d-3iK-41" value="회원가입" style="swimlane;fontStyle=0;align=center;verticalAlign=middle;childLayout=stackLayout;horizontal=1;startSize=26;horizontalStack=0;resizeParent=1;resizeLast=0;collapsible=1;marginBottom=0;rounded=0;shadow=0;strokeWidth=1;fillColor=none;swimlaneFillColor=none;labelBackgroundColor=none;" vertex="1" parent="WIyWlLk6GJQsqaUBKTNV-1">
          <mxGeometry x="320" y="40" width="160" height="240" as="geometry">
            <mxRectangle x="40" y="70" width="160" height="26" as="alternateBounds" />
          </mxGeometry>
        </mxCell>
        <mxCell id="rXzRcfoX-HvQge2d-3iK-42" value="아이디 입력:&amp;nbsp;&lt;br&gt;아이디 중복확인&lt;br&gt;비밀번호 입력:&lt;br&gt;비밀번호 확인 입력:" style="rounded=0;whiteSpace=wrap;html=1;labelBackgroundColor=none;fillColor=none;" vertex="1" parent="rXzRcfoX-HvQge2d-3iK-41">
          <mxGeometry y="26" width="160" height="174" as="geometry" />
        </mxCell>
        <mxCell id="rXzRcfoX-HvQge2d-3iK-48" value="회원가입하기" style="rounded=0;whiteSpace=wrap;html=1;labelBackgroundColor=none;fillColor=none;" vertex="1" parent="rXzRcfoX-HvQge2d-3iK-41">
          <mxGeometry y="200" width="160" height="40" as="geometry" />
        </mxCell>
        <mxCell id="rXzRcfoX-HvQge2d-3iK-50" value="로그인" style="swimlane;fontStyle=0;align=center;verticalAlign=middle;childLayout=stackLayout;horizontal=1;startSize=26;horizontalStack=0;resizeParent=1;resizeLast=0;collapsible=1;marginBottom=0;rounded=0;shadow=0;strokeWidth=1;fillColor=none;swimlaneFillColor=none;labelBackgroundColor=none;" vertex="1" parent="WIyWlLk6GJQsqaUBKTNV-1">
          <mxGeometry x="40" y="400" width="160" height="240" as="geometry">
            <mxRectangle x="40" y="70" width="160" height="26" as="alternateBounds" />
          </mxGeometry>
        </mxCell>
        <mxCell id="rXzRcfoX-HvQge2d-3iK-51" value="아이디 입력:&lt;br&gt;비밀번호 입력:" style="rounded=0;whiteSpace=wrap;html=1;labelBackgroundColor=none;fillColor=none;" vertex="1" parent="rXzRcfoX-HvQge2d-3iK-50">
          <mxGeometry y="26" width="160" height="174" as="geometry" />
        </mxCell>
        <mxCell id="rXzRcfoX-HvQge2d-3iK-68" value="로그인" style="rounded=0;whiteSpace=wrap;html=1;labelBackgroundColor=none;fillColor=none;" vertex="1" parent="rXzRcfoX-HvQge2d-3iK-50">
          <mxGeometry y="200" width="160" height="40" as="geometry" />
        </mxCell>
        <mxCell id="rXzRcfoX-HvQge2d-3iK-57" value="" style="resizable=0;align=left;verticalAlign=bottom;labelBackgroundColor=none;fontSize=12;" connectable="0" vertex="1" parent="WIyWlLk6GJQsqaUBKTNV-1">
          <mxGeometry x="200" y="534" as="geometry" />
        </mxCell>
        <mxCell id="rXzRcfoX-HvQge2d-3iK-63" value="" style="endArrow=open;shadow=0;strokeWidth=1;rounded=0;endFill=1;edgeStyle=elbowEdgeStyle;elbow=vertical;entryX=0.5;entryY=0;entryDx=0;entryDy=0;" edge="1" parent="WIyWlLk6GJQsqaUBKTNV-1" target="rXzRcfoX-HvQge2d-3iK-50">
          <mxGeometry relative="1" as="geometry">
            <mxPoint x="110" y="280" as="sourcePoint" />
            <mxPoint x="230" y="280" as="targetPoint" />
          </mxGeometry>
        </mxCell>
        <mxCell id="rXzRcfoX-HvQge2d-3iK-64" value="" style="resizable=0;align=left;verticalAlign=bottom;labelBackgroundColor=none;fontSize=12;" connectable="0" vertex="1" parent="rXzRcfoX-HvQge2d-3iK-63">
          <mxGeometry x="-1" relative="1" as="geometry">
            <mxPoint y="4" as="offset" />
          </mxGeometry>
        </mxCell>
        <mxCell id="rXzRcfoX-HvQge2d-3iK-67" value="로그인 클릭" style="text;html=1;strokeColor=none;fillColor=none;align=center;verticalAlign=middle;whiteSpace=wrap;rounded=0;labelBackgroundColor=none;" vertex="1" parent="WIyWlLk6GJQsqaUBKTNV-1">
          <mxGeometry x="110" y="310" width="60" height="30" as="geometry" />
        </mxCell>
        <mxCell id="rXzRcfoX-HvQge2d-3iK-69" value="메인화면/홈" style="swimlane;fontStyle=0;align=center;verticalAlign=middle;childLayout=stackLayout;horizontal=1;startSize=26;horizontalStack=0;resizeParent=1;resizeLast=0;collapsible=1;marginBottom=0;rounded=0;shadow=0;strokeWidth=1;fillColor=none;swimlaneFillColor=none;labelBackgroundColor=none;" vertex="1" parent="WIyWlLk6GJQsqaUBKTNV-1">
          <mxGeometry x="320" y="400" width="160" height="240" as="geometry">
            <mxRectangle x="40" y="70" width="160" height="26" as="alternateBounds" />
          </mxGeometry>
        </mxCell>
        <mxCell id="rXzRcfoX-HvQge2d-3iK-87" value="주요공지 1" style="rounded=0;whiteSpace=wrap;html=1;labelBackgroundColor=none;fillColor=none;" vertex="1" parent="rXzRcfoX-HvQge2d-3iK-69">
          <mxGeometry y="26" width="160" height="54" as="geometry" />
        </mxCell>
        <mxCell id="rXzRcfoX-HvQge2d-3iK-85" value="공지 2" style="rounded=0;whiteSpace=wrap;html=1;labelBackgroundColor=none;fillColor=none;" vertex="1" parent="rXzRcfoX-HvQge2d-3iK-69">
          <mxGeometry y="80" width="160" height="30" as="geometry" />
        </mxCell>
        <mxCell id="rXzRcfoX-HvQge2d-3iK-86" value="공지 3" style="rounded=0;whiteSpace=wrap;html=1;labelBackgroundColor=none;fillColor=none;" vertex="1" parent="rXzRcfoX-HvQge2d-3iK-69">
          <mxGeometry y="110" width="160" height="30" as="geometry" />
        </mxCell>
        <mxCell id="rXzRcfoX-HvQge2d-3iK-89" value="공지 4" style="rounded=0;whiteSpace=wrap;html=1;labelBackgroundColor=none;fillColor=none;" vertex="1" parent="rXzRcfoX-HvQge2d-3iK-69">
          <mxGeometry y="140" width="160" height="30" as="geometry" />
        </mxCell>
        <mxCell id="rXzRcfoX-HvQge2d-3iK-88" value="공지 5" style="rounded=0;whiteSpace=wrap;html=1;labelBackgroundColor=none;fillColor=none;" vertex="1" parent="rXzRcfoX-HvQge2d-3iK-69">
          <mxGeometry y="170" width="160" height="30" as="geometry" />
        </mxCell>
        <mxCell id="rXzRcfoX-HvQge2d-3iK-78" value="" style="shape=table;html=1;whiteSpace=wrap;startSize=0;container=1;collapsible=0;childLayout=tableLayout;rounded=1;labelBackgroundColor=none;fillColor=none;" vertex="1" parent="rXzRcfoX-HvQge2d-3iK-69">
          <mxGeometry y="200" width="160" height="40" as="geometry" />
        </mxCell>
        <mxCell id="rXzRcfoX-HvQge2d-3iK-79" value="" style="shape=tableRow;horizontal=0;startSize=0;swimlaneHead=0;swimlaneBody=0;top=0;left=0;bottom=0;right=0;collapsible=0;dropTarget=0;fillColor=none;points=[[0,0.5],[1,0.5]];portConstraint=eastwest;rounded=1;labelBackgroundColor=none;html=0;" vertex="1" parent="rXzRcfoX-HvQge2d-3iK-78">
          <mxGeometry width="160" height="40" as="geometry" />
        </mxCell>
        <mxCell id="rXzRcfoX-HvQge2d-3iK-80" value="피드" style="shape=partialRectangle;html=1;whiteSpace=wrap;connectable=0;fillColor=none;top=0;left=0;bottom=0;right=0;overflow=hidden;rounded=1;labelBackgroundColor=none;" vertex="1" parent="rXzRcfoX-HvQge2d-3iK-79">
          <mxGeometry width="50" height="40" as="geometry">
            <mxRectangle width="50" height="40" as="alternateBounds" />
          </mxGeometry>
        </mxCell>
        <mxCell id="rXzRcfoX-HvQge2d-3iK-81" value="홈" style="shape=partialRectangle;html=1;whiteSpace=wrap;connectable=0;fillColor=none;top=0;left=0;bottom=0;right=0;overflow=hidden;rounded=1;labelBackgroundColor=none;" vertex="1" parent="rXzRcfoX-HvQge2d-3iK-79">
          <mxGeometry x="50" width="57" height="40" as="geometry">
            <mxRectangle width="57" height="40" as="alternateBounds" />
          </mxGeometry>
        </mxCell>
        <mxCell id="rXzRcfoX-HvQge2d-3iK-82" value="마이페이지" style="shape=partialRectangle;html=1;whiteSpace=wrap;connectable=0;fillColor=none;top=0;left=0;bottom=0;right=0;overflow=hidden;rounded=1;labelBackgroundColor=none;" vertex="1" parent="rXzRcfoX-HvQge2d-3iK-79">
          <mxGeometry x="107" width="53" height="40" as="geometry">
            <mxRectangle width="53" height="40" as="alternateBounds" />
          </mxGeometry>
        </mxCell>
        <mxCell id="rXzRcfoX-HvQge2d-3iK-72" value="" style="endArrow=open;shadow=0;strokeWidth=1;rounded=0;endFill=1;edgeStyle=elbowEdgeStyle;elbow=vertical;entryX=0.75;entryY=0;entryDx=0;entryDy=0;" edge="1" parent="WIyWlLk6GJQsqaUBKTNV-1" target="rXzRcfoX-HvQge2d-3iK-50">
          <mxGeometry relative="1" as="geometry">
            <mxPoint x="400" y="280" as="sourcePoint" />
            <mxPoint x="520" y="280" as="targetPoint" />
          </mxGeometry>
        </mxCell>
        <mxCell id="rXzRcfoX-HvQge2d-3iK-73" value="" style="resizable=0;align=left;verticalAlign=bottom;labelBackgroundColor=none;fontSize=12;" connectable="0" vertex="1" parent="rXzRcfoX-HvQge2d-3iK-72">
          <mxGeometry x="-1" relative="1" as="geometry">
            <mxPoint y="4" as="offset" />
          </mxGeometry>
        </mxCell>
        <mxCell id="rXzRcfoX-HvQge2d-3iK-74" value="회원가입하기 클릭" style="text;html=1;resizable=0;points=[];;align=center;verticalAlign=middle;labelBackgroundColor=none;rounded=0;shadow=0;strokeWidth=1;fontSize=12;" vertex="1" connectable="0" parent="rXzRcfoX-HvQge2d-3iK-72">
          <mxGeometry x="0.5" y="49" relative="1" as="geometry">
            <mxPoint x="90" y="-59" as="offset" />
          </mxGeometry>
        </mxCell>
        <mxCell id="rXzRcfoX-HvQge2d-3iK-94" style="edgeStyle=orthogonalEdgeStyle;rounded=0;orthogonalLoop=1;jettySize=auto;html=1;exitX=0;exitY=0.5;exitDx=0;exitDy=0;" edge="1" parent="WIyWlLk6GJQsqaUBKTNV-1" source="rXzRcfoX-HvQge2d-3iK-35">
          <mxGeometry relative="1" as="geometry">
            <mxPoint x="440" y="400" as="targetPoint" />
            <Array as="points">
              <mxPoint x="20" y="260" />
              <mxPoint x="20" y="300" />
              <mxPoint x="440" y="300" />
              <mxPoint x="440" y="400" />
            </Array>
          </mxGeometry>
        </mxCell>
        <mxCell id="rXzRcfoX-HvQge2d-3iK-95" value="비로그인 클릭" style="text;html=1;resizable=0;points=[];;align=center;verticalAlign=middle;labelBackgroundColor=none;rounded=0;shadow=0;strokeWidth=1;fontSize=12;" vertex="1" connectable="0" parent="WIyWlLk6GJQsqaUBKTNV-1">
          <mxGeometry x="490" y="340" as="geometry" />
        </mxCell>
        <mxCell id="rXzRcfoX-HvQge2d-3iK-96" value="" style="endArrow=open;shadow=0;strokeWidth=1;rounded=0;endFill=1;edgeStyle=elbowEdgeStyle;elbow=vertical;entryX=0;entryY=0;entryDx=0;entryDy=0;exitX=1;exitY=0.5;exitDx=0;exitDy=0;" edge="1" parent="WIyWlLk6GJQsqaUBKTNV-1" source="rXzRcfoX-HvQge2d-3iK-51" target="rXzRcfoX-HvQge2d-3iK-86">
          <mxGeometry relative="1" as="geometry">
            <mxPoint x="210" y="510" as="sourcePoint" />
            <mxPoint x="30" y="810" as="targetPoint" />
            <Array as="points">
              <mxPoint x="270" y="510" />
            </Array>
          </mxGeometry>
        </mxCell>
        <mxCell id="rXzRcfoX-HvQge2d-3iK-97" value="" style="resizable=0;align=left;verticalAlign=bottom;labelBackgroundColor=none;fontSize=12;" connectable="0" vertex="1" parent="rXzRcfoX-HvQge2d-3iK-96">
          <mxGeometry x="-1" relative="1" as="geometry">
            <mxPoint y="4" as="offset" />
          </mxGeometry>
        </mxCell>
        <mxCell id="rXzRcfoX-HvQge2d-3iK-99" value="로그인 클릭" style="text;html=1;resizable=0;points=[];;align=center;verticalAlign=middle;labelBackgroundColor=none;rounded=0;shadow=0;strokeWidth=1;fontSize=12;" vertex="1" connectable="0" parent="WIyWlLk6GJQsqaUBKTNV-1">
          <mxGeometry x="260" y="500" as="geometry">
            <mxPoint x="-2" as="offset" />
          </mxGeometry>
        </mxCell>
        <mxCell id="rXzRcfoX-HvQge2d-3iK-100" value="피드" style="swimlane;fontStyle=0;align=center;verticalAlign=middle;childLayout=stackLayout;horizontal=1;startSize=26;horizontalStack=0;resizeParent=1;resizeLast=0;collapsible=1;marginBottom=0;rounded=0;shadow=0;strokeWidth=1;fillColor=none;swimlaneFillColor=none;labelBackgroundColor=none;" vertex="1" parent="WIyWlLk6GJQsqaUBKTNV-1">
          <mxGeometry x="40" y="760" width="160" height="240" as="geometry">
            <mxRectangle x="40" y="70" width="160" height="26" as="alternateBounds" />
          </mxGeometry>
        </mxCell>
        <mxCell id="rXzRcfoX-HvQge2d-3iK-101" value="관심공지 1 / 확인여부 표시" style="rounded=0;whiteSpace=wrap;html=1;labelBackgroundColor=none;fillColor=none;" vertex="1" parent="rXzRcfoX-HvQge2d-3iK-100">
          <mxGeometry y="26" width="160" height="54" as="geometry" />
        </mxCell>
        <mxCell id="rXzRcfoX-HvQge2d-3iK-102" value="관심공지 2 / 확인여부 표시" style="rounded=0;whiteSpace=wrap;html=1;labelBackgroundColor=none;fillColor=none;" vertex="1" parent="rXzRcfoX-HvQge2d-3iK-100">
          <mxGeometry y="80" width="160" height="30" as="geometry" />
        </mxCell>
        <mxCell id="rXzRcfoX-HvQge2d-3iK-103" value="관심공지 3 / 확인여부 표시" style="rounded=0;whiteSpace=wrap;html=1;labelBackgroundColor=none;fillColor=none;" vertex="1" parent="rXzRcfoX-HvQge2d-3iK-100">
          <mxGeometry y="110" width="160" height="30" as="geometry" />
        </mxCell>
        <mxCell id="rXzRcfoX-HvQge2d-3iK-104" value="관심공지 4 / 확인여부 표시" style="rounded=0;whiteSpace=wrap;html=1;labelBackgroundColor=none;fillColor=none;" vertex="1" parent="rXzRcfoX-HvQge2d-3iK-100">
          <mxGeometry y="140" width="160" height="30" as="geometry" />
        </mxCell>
        <mxCell id="rXzRcfoX-HvQge2d-3iK-105" value="관심공지 5 / 확인여부 표시" style="rounded=0;whiteSpace=wrap;html=1;labelBackgroundColor=none;fillColor=none;" vertex="1" parent="rXzRcfoX-HvQge2d-3iK-100">
          <mxGeometry y="170" width="160" height="30" as="geometry" />
        </mxCell>
        <mxCell id="rXzRcfoX-HvQge2d-3iK-106" value="" style="shape=table;html=1;whiteSpace=wrap;startSize=0;container=1;collapsible=0;childLayout=tableLayout;rounded=1;labelBackgroundColor=none;fillColor=none;" vertex="1" parent="rXzRcfoX-HvQge2d-3iK-100">
          <mxGeometry y="200" width="160" height="40" as="geometry" />
        </mxCell>
        <mxCell id="rXzRcfoX-HvQge2d-3iK-107" value="" style="shape=tableRow;horizontal=0;startSize=0;swimlaneHead=0;swimlaneBody=0;top=0;left=0;bottom=0;right=0;collapsible=0;dropTarget=0;fillColor=none;points=[[0,0.5],[1,0.5]];portConstraint=eastwest;rounded=1;labelBackgroundColor=none;html=0;" vertex="1" parent="rXzRcfoX-HvQge2d-3iK-106">
          <mxGeometry width="160" height="40" as="geometry" />
        </mxCell>
        <mxCell id="rXzRcfoX-HvQge2d-3iK-108" value="피드" style="shape=partialRectangle;html=1;whiteSpace=wrap;connectable=0;fillColor=none;top=0;left=0;bottom=0;right=0;overflow=hidden;rounded=1;labelBackgroundColor=none;" vertex="1" parent="rXzRcfoX-HvQge2d-3iK-107">
          <mxGeometry width="50" height="40" as="geometry">
            <mxRectangle width="50" height="40" as="alternateBounds" />
          </mxGeometry>
        </mxCell>
        <mxCell id="rXzRcfoX-HvQge2d-3iK-109" value="홈" style="shape=partialRectangle;html=1;whiteSpace=wrap;connectable=0;fillColor=none;top=0;left=0;bottom=0;right=0;overflow=hidden;rounded=1;labelBackgroundColor=none;" vertex="1" parent="rXzRcfoX-HvQge2d-3iK-107">
          <mxGeometry x="50" width="57" height="40" as="geometry">
            <mxRectangle width="57" height="40" as="alternateBounds" />
          </mxGeometry>
        </mxCell>
        <mxCell id="rXzRcfoX-HvQge2d-3iK-110" value="마이페이지" style="shape=partialRectangle;html=1;whiteSpace=wrap;connectable=0;fillColor=none;top=0;left=0;bottom=0;right=0;overflow=hidden;rounded=1;labelBackgroundColor=none;" vertex="1" parent="rXzRcfoX-HvQge2d-3iK-107">
          <mxGeometry x="107" width="53" height="40" as="geometry">
            <mxRectangle width="53" height="40" as="alternateBounds" />
          </mxGeometry>
        </mxCell>
        <mxCell id="rXzRcfoX-HvQge2d-3iK-111" value="홈" style="swimlane;fontStyle=0;align=center;verticalAlign=middle;childLayout=stackLayout;horizontal=1;startSize=26;horizontalStack=0;resizeParent=1;resizeLast=0;collapsible=1;marginBottom=0;rounded=0;shadow=0;strokeWidth=1;fillColor=none;swimlaneFillColor=none;labelBackgroundColor=none;" vertex="1" parent="WIyWlLk6GJQsqaUBKTNV-1">
          <mxGeometry x="320" y="760" width="160" height="240" as="geometry">
            <mxRectangle x="40" y="70" width="160" height="26" as="alternateBounds" />
          </mxGeometry>
        </mxCell>
        <mxCell id="rXzRcfoX-HvQge2d-3iK-112" value="주요공지 1" style="rounded=0;whiteSpace=wrap;html=1;labelBackgroundColor=none;fillColor=none;" vertex="1" parent="rXzRcfoX-HvQge2d-3iK-111">
          <mxGeometry y="26" width="160" height="54" as="geometry" />
        </mxCell>
        <mxCell id="rXzRcfoX-HvQge2d-3iK-113" value="공지 2" style="rounded=0;whiteSpace=wrap;html=1;labelBackgroundColor=none;fillColor=none;" vertex="1" parent="rXzRcfoX-HvQge2d-3iK-111">
          <mxGeometry y="80" width="160" height="30" as="geometry" />
        </mxCell>
        <mxCell id="rXzRcfoX-HvQge2d-3iK-114" value="공지 3" style="rounded=0;whiteSpace=wrap;html=1;labelBackgroundColor=none;fillColor=none;" vertex="1" parent="rXzRcfoX-HvQge2d-3iK-111">
          <mxGeometry y="110" width="160" height="30" as="geometry" />
        </mxCell>
        <mxCell id="rXzRcfoX-HvQge2d-3iK-115" value="공지 4" style="rounded=0;whiteSpace=wrap;html=1;labelBackgroundColor=none;fillColor=none;" vertex="1" parent="rXzRcfoX-HvQge2d-3iK-111">
          <mxGeometry y="140" width="160" height="30" as="geometry" />
        </mxCell>
        <mxCell id="rXzRcfoX-HvQge2d-3iK-116" value="공지 5" style="rounded=0;whiteSpace=wrap;html=1;labelBackgroundColor=none;fillColor=none;" vertex="1" parent="rXzRcfoX-HvQge2d-3iK-111">
          <mxGeometry y="170" width="160" height="30" as="geometry" />
        </mxCell>
        <mxCell id="rXzRcfoX-HvQge2d-3iK-117" value="" style="shape=table;html=1;whiteSpace=wrap;startSize=0;container=1;collapsible=0;childLayout=tableLayout;rounded=1;labelBackgroundColor=none;fillColor=none;" vertex="1" parent="rXzRcfoX-HvQge2d-3iK-111">
          <mxGeometry y="200" width="160" height="40" as="geometry" />
        </mxCell>
        <mxCell id="rXzRcfoX-HvQge2d-3iK-118" value="" style="shape=tableRow;horizontal=0;startSize=0;swimlaneHead=0;swimlaneBody=0;top=0;left=0;bottom=0;right=0;collapsible=0;dropTarget=0;fillColor=none;points=[[0,0.5],[1,0.5]];portConstraint=eastwest;rounded=1;labelBackgroundColor=none;html=0;" vertex="1" parent="rXzRcfoX-HvQge2d-3iK-117">
          <mxGeometry width="160" height="40" as="geometry" />
        </mxCell>
        <mxCell id="rXzRcfoX-HvQge2d-3iK-119" value="피드" style="shape=partialRectangle;html=1;whiteSpace=wrap;connectable=0;fillColor=none;top=0;left=0;bottom=0;right=0;overflow=hidden;rounded=1;labelBackgroundColor=none;" vertex="1" parent="rXzRcfoX-HvQge2d-3iK-118">
          <mxGeometry width="50" height="40" as="geometry">
            <mxRectangle width="50" height="40" as="alternateBounds" />
          </mxGeometry>
        </mxCell>
        <mxCell id="rXzRcfoX-HvQge2d-3iK-120" value="홈" style="shape=partialRectangle;html=1;whiteSpace=wrap;connectable=0;fillColor=none;top=0;left=0;bottom=0;right=0;overflow=hidden;rounded=1;labelBackgroundColor=none;" vertex="1" parent="rXzRcfoX-HvQge2d-3iK-118">
          <mxGeometry x="50" width="57" height="40" as="geometry">
            <mxRectangle width="57" height="40" as="alternateBounds" />
          </mxGeometry>
        </mxCell>
        <mxCell id="rXzRcfoX-HvQge2d-3iK-121" value="마이페이지" style="shape=partialRectangle;html=1;whiteSpace=wrap;connectable=0;fillColor=none;top=0;left=0;bottom=0;right=0;overflow=hidden;rounded=1;labelBackgroundColor=none;" vertex="1" parent="rXzRcfoX-HvQge2d-3iK-118">
          <mxGeometry x="107" width="53" height="40" as="geometry">
            <mxRectangle width="53" height="40" as="alternateBounds" />
          </mxGeometry>
        </mxCell>
        <mxCell id="rXzRcfoX-HvQge2d-3iK-122" value="마이페이지" style="swimlane;fontStyle=0;align=center;verticalAlign=middle;childLayout=stackLayout;horizontal=1;startSize=26;horizontalStack=0;resizeParent=1;resizeLast=0;collapsible=1;marginBottom=0;rounded=0;shadow=0;strokeWidth=1;fillColor=none;swimlaneFillColor=none;labelBackgroundColor=none;" vertex="1" parent="WIyWlLk6GJQsqaUBKTNV-1">
          <mxGeometry x="600" y="760" width="160" height="240" as="geometry">
            <mxRectangle x="40" y="70" width="160" height="26" as="alternateBounds" />
          </mxGeometry>
        </mxCell>
        <mxCell id="rXzRcfoX-HvQge2d-3iK-123" value="관심분야 설정" style="rounded=0;whiteSpace=wrap;html=1;labelBackgroundColor=none;fillColor=none;" vertex="1" parent="rXzRcfoX-HvQge2d-3iK-122">
          <mxGeometry y="26" width="160" height="54" as="geometry" />
        </mxCell>
        <mxCell id="rXzRcfoX-HvQge2d-3iK-124" value="비밀번호 변경" style="rounded=0;whiteSpace=wrap;html=1;labelBackgroundColor=none;fillColor=none;" vertex="1" parent="rXzRcfoX-HvQge2d-3iK-122">
          <mxGeometry y="80" width="160" height="30" as="geometry" />
        </mxCell>
        <mxCell id="rXzRcfoX-HvQge2d-3iK-127" value="" style="rounded=0;whiteSpace=wrap;html=1;labelBackgroundColor=none;fillColor=none;" vertex="1" parent="rXzRcfoX-HvQge2d-3iK-122">
          <mxGeometry y="110" width="160" height="90" as="geometry" />
        </mxCell>
        <mxCell id="rXzRcfoX-HvQge2d-3iK-128" value="" style="shape=table;html=1;whiteSpace=wrap;startSize=0;container=1;collapsible=0;childLayout=tableLayout;rounded=1;labelBackgroundColor=none;fillColor=none;" vertex="1" parent="rXzRcfoX-HvQge2d-3iK-122">
          <mxGeometry y="200" width="160" height="40" as="geometry" />
        </mxCell>
        <mxCell id="rXzRcfoX-HvQge2d-3iK-129" value="" style="shape=tableRow;horizontal=0;startSize=0;swimlaneHead=0;swimlaneBody=0;top=0;left=0;bottom=0;right=0;collapsible=0;dropTarget=0;fillColor=none;points=[[0,0.5],[1,0.5]];portConstraint=eastwest;rounded=1;labelBackgroundColor=none;html=0;" vertex="1" parent="rXzRcfoX-HvQge2d-3iK-128">
          <mxGeometry width="160" height="40" as="geometry" />
        </mxCell>
        <mxCell id="rXzRcfoX-HvQge2d-3iK-130" value="피드" style="shape=partialRectangle;html=1;whiteSpace=wrap;connectable=0;fillColor=none;top=0;left=0;bottom=0;right=0;overflow=hidden;rounded=1;labelBackgroundColor=none;" vertex="1" parent="rXzRcfoX-HvQge2d-3iK-129">
          <mxGeometry width="50" height="40" as="geometry">
            <mxRectangle width="50" height="40" as="alternateBounds" />
          </mxGeometry>
        </mxCell>
        <mxCell id="rXzRcfoX-HvQge2d-3iK-131" value="홈" style="shape=partialRectangle;html=1;whiteSpace=wrap;connectable=0;fillColor=none;top=0;left=0;bottom=0;right=0;overflow=hidden;rounded=1;labelBackgroundColor=none;" vertex="1" parent="rXzRcfoX-HvQge2d-3iK-129">
          <mxGeometry x="50" width="57" height="40" as="geometry">
            <mxRectangle width="57" height="40" as="alternateBounds" />
          </mxGeometry>
        </mxCell>
        <mxCell id="rXzRcfoX-HvQge2d-3iK-132" value="마이페이지" style="shape=partialRectangle;html=1;whiteSpace=wrap;connectable=0;fillColor=none;top=0;left=0;bottom=0;right=0;overflow=hidden;rounded=1;labelBackgroundColor=none;" vertex="1" parent="rXzRcfoX-HvQge2d-3iK-129">
          <mxGeometry x="107" width="53" height="40" as="geometry">
            <mxRectangle width="53" height="40" as="alternateBounds" />
          </mxGeometry>
        </mxCell>
        <mxCell id="rXzRcfoX-HvQge2d-3iK-133" value="아티클" style="swimlane;fontStyle=0;align=center;verticalAlign=middle;childLayout=stackLayout;horizontal=1;startSize=26;horizontalStack=0;resizeParent=1;resizeLast=0;collapsible=1;marginBottom=0;rounded=0;shadow=0;strokeWidth=1;fillColor=none;swimlaneFillColor=none;labelBackgroundColor=none;" vertex="1" parent="WIyWlLk6GJQsqaUBKTNV-1">
          <mxGeometry x="40" y="1120" width="160" height="240" as="geometry">
            <mxRectangle x="40" y="70" width="160" height="26" as="alternateBounds" />
          </mxGeometry>
        </mxCell>
        <mxCell id="rXzRcfoX-HvQge2d-3iK-144" value="뒤로가기" style="rounded=0;whiteSpace=wrap;html=1;labelBackgroundColor=none;fillColor=none;" vertex="1" parent="rXzRcfoX-HvQge2d-3iK-133">
          <mxGeometry y="26" width="160" height="24" as="geometry" />
        </mxCell>
        <mxCell id="rXzRcfoX-HvQge2d-3iK-134" value="공지 url" style="rounded=0;whiteSpace=wrap;html=1;labelBackgroundColor=none;fillColor=none;" vertex="1" parent="rXzRcfoX-HvQge2d-3iK-133">
          <mxGeometry y="50" width="160" height="24" as="geometry" />
        </mxCell>
        <mxCell id="rXzRcfoX-HvQge2d-3iK-138" value="공지 내용" style="rounded=0;whiteSpace=wrap;html=1;labelBackgroundColor=none;fillColor=none;" vertex="1" parent="rXzRcfoX-HvQge2d-3iK-133">
          <mxGeometry y="74" width="160" height="126" as="geometry" />
        </mxCell>
        <mxCell id="rXzRcfoX-HvQge2d-3iK-139" value="" style="shape=table;html=1;whiteSpace=wrap;startSize=0;container=1;collapsible=0;childLayout=tableLayout;rounded=1;labelBackgroundColor=none;fillColor=none;" vertex="1" parent="rXzRcfoX-HvQge2d-3iK-133">
          <mxGeometry y="200" width="160" height="40" as="geometry" />
        </mxCell>
        <mxCell id="rXzRcfoX-HvQge2d-3iK-140" value="" style="shape=tableRow;horizontal=0;startSize=0;swimlaneHead=0;swimlaneBody=0;top=0;left=0;bottom=0;right=0;collapsible=0;dropTarget=0;fillColor=none;points=[[0,0.5],[1,0.5]];portConstraint=eastwest;rounded=1;labelBackgroundColor=none;html=0;" vertex="1" parent="rXzRcfoX-HvQge2d-3iK-139">
          <mxGeometry width="160" height="40" as="geometry" />
        </mxCell>
        <mxCell id="rXzRcfoX-HvQge2d-3iK-141" value="피드" style="shape=partialRectangle;html=1;whiteSpace=wrap;connectable=0;fillColor=none;top=0;left=0;bottom=0;right=0;overflow=hidden;rounded=1;labelBackgroundColor=none;" vertex="1" parent="rXzRcfoX-HvQge2d-3iK-140">
          <mxGeometry width="50" height="40" as="geometry">
            <mxRectangle width="50" height="40" as="alternateBounds" />
          </mxGeometry>
        </mxCell>
        <mxCell id="rXzRcfoX-HvQge2d-3iK-142" value="홈" style="shape=partialRectangle;html=1;whiteSpace=wrap;connectable=0;fillColor=none;top=0;left=0;bottom=0;right=0;overflow=hidden;rounded=1;labelBackgroundColor=none;" vertex="1" parent="rXzRcfoX-HvQge2d-3iK-140">
          <mxGeometry x="50" width="57" height="40" as="geometry">
            <mxRectangle width="57" height="40" as="alternateBounds" />
          </mxGeometry>
        </mxCell>
        <mxCell id="rXzRcfoX-HvQge2d-3iK-143" value="마이페이지" style="shape=partialRectangle;html=1;whiteSpace=wrap;connectable=0;fillColor=none;top=0;left=0;bottom=0;right=0;overflow=hidden;rounded=1;labelBackgroundColor=none;" vertex="1" parent="rXzRcfoX-HvQge2d-3iK-140">
          <mxGeometry x="107" width="53" height="40" as="geometry">
            <mxRectangle width="53" height="40" as="alternateBounds" />
          </mxGeometry>
        </mxCell>
        <mxCell id="rXzRcfoX-HvQge2d-3iK-145" style="edgeStyle=orthogonalEdgeStyle;rounded=0;orthogonalLoop=1;jettySize=auto;html=1;exitX=0.144;exitY=0.988;exitDx=0;exitDy=0;exitPerimeter=0;" edge="1" parent="WIyWlLk6GJQsqaUBKTNV-1" source="rXzRcfoX-HvQge2d-3iK-79">
          <mxGeometry relative="1" as="geometry">
            <mxPoint x="119.5" y="640" as="sourcePoint" />
            <mxPoint x="119.5" y="760" as="targetPoint" />
            <Array as="points">
              <mxPoint x="343" y="680" />
              <mxPoint x="120" y="680" />
            </Array>
          </mxGeometry>
        </mxCell>
        <mxCell id="rXzRcfoX-HvQge2d-3iK-148" value="피드 클릭" style="text;html=1;strokeColor=none;fillColor=none;align=center;verticalAlign=middle;whiteSpace=wrap;rounded=0;labelBackgroundColor=none;" vertex="1" parent="WIyWlLk6GJQsqaUBKTNV-1">
          <mxGeometry x="130" y="680" width="60" height="30" as="geometry" />
        </mxCell>
        <mxCell id="rXzRcfoX-HvQge2d-3iK-149" style="edgeStyle=orthogonalEdgeStyle;rounded=0;orthogonalLoop=1;jettySize=auto;html=1;exitX=0.5;exitY=1.013;exitDx=0;exitDy=0;exitPerimeter=0;entryX=0.5;entryY=0;entryDx=0;entryDy=0;" edge="1" parent="WIyWlLk6GJQsqaUBKTNV-1" source="rXzRcfoX-HvQge2d-3iK-79" target="rXzRcfoX-HvQge2d-3iK-111">
          <mxGeometry relative="1" as="geometry">
            <mxPoint x="353.03999999999996" y="649.52" as="sourcePoint" />
            <mxPoint x="129.5" y="770" as="targetPoint" />
            <Array as="points">
              <mxPoint x="400" y="670" />
              <mxPoint x="400" y="670" />
            </Array>
          </mxGeometry>
        </mxCell>
        <mxCell id="rXzRcfoX-HvQge2d-3iK-150" style="edgeStyle=orthogonalEdgeStyle;rounded=0;orthogonalLoop=1;jettySize=auto;html=1;exitX=0.831;exitY=1.038;exitDx=0;exitDy=0;exitPerimeter=0;entryX=0.5;entryY=0;entryDx=0;entryDy=0;" edge="1" parent="WIyWlLk6GJQsqaUBKTNV-1" source="rXzRcfoX-HvQge2d-3iK-79" target="rXzRcfoX-HvQge2d-3iK-122">
          <mxGeometry relative="1" as="geometry">
            <mxPoint x="410" y="650.52" as="sourcePoint" />
            <mxPoint x="410" y="770" as="targetPoint" />
            <Array as="points">
              <mxPoint x="453" y="680" />
              <mxPoint x="680" y="680" />
            </Array>
          </mxGeometry>
        </mxCell>
        <mxCell id="rXzRcfoX-HvQge2d-3iK-151" value="홈 클릭" style="text;html=1;strokeColor=none;fillColor=none;align=center;verticalAlign=middle;whiteSpace=wrap;rounded=0;labelBackgroundColor=none;" vertex="1" parent="WIyWlLk6GJQsqaUBKTNV-1">
          <mxGeometry x="340" y="680" width="60" height="30" as="geometry" />
        </mxCell>
        <mxCell id="rXzRcfoX-HvQge2d-3iK-152" value="마이페이지 클릭" style="text;html=1;strokeColor=none;fillColor=none;align=center;verticalAlign=middle;whiteSpace=wrap;rounded=0;labelBackgroundColor=none;" vertex="1" parent="WIyWlLk6GJQsqaUBKTNV-1">
          <mxGeometry x="620" y="690" width="60" height="30" as="geometry" />
        </mxCell>
        <mxCell id="rXzRcfoX-HvQge2d-3iK-154" style="edgeStyle=orthogonalEdgeStyle;rounded=0;orthogonalLoop=1;jettySize=auto;html=1;exitX=0.5;exitY=1.013;exitDx=0;exitDy=0;exitPerimeter=0;entryX=0.5;entryY=0;entryDx=0;entryDy=0;" edge="1" parent="WIyWlLk6GJQsqaUBKTNV-1">
          <mxGeometry relative="1" as="geometry">
            <mxPoint x="100" y="1000.52" as="sourcePoint" />
            <mxPoint x="100" y="1120" as="targetPoint" />
            <Array as="points">
              <mxPoint x="100" y="1030" />
              <mxPoint x="100" y="1030" />
            </Array>
          </mxGeometry>
        </mxCell>
        <mxCell id="rXzRcfoX-HvQge2d-3iK-155" style="edgeStyle=orthogonalEdgeStyle;rounded=0;orthogonalLoop=1;jettySize=auto;html=1;exitX=0;exitY=0.75;exitDx=0;exitDy=0;" edge="1" parent="WIyWlLk6GJQsqaUBKTNV-1" source="rXzRcfoX-HvQge2d-3iK-112">
          <mxGeometry relative="1" as="geometry">
            <mxPoint x="290" y="900" as="sourcePoint" />
            <mxPoint x="200" y="1200" as="targetPoint" />
            <Array as="points">
              <mxPoint x="240" y="827" />
              <mxPoint x="240" y="1200" />
            </Array>
          </mxGeometry>
        </mxCell>
        <mxCell id="rXzRcfoX-HvQge2d-3iK-156" style="edgeStyle=orthogonalEdgeStyle;rounded=0;orthogonalLoop=1;jettySize=auto;html=1;entryX=0;entryY=1;entryDx=0;entryDy=0;exitX=1;exitY=0.25;exitDx=0;exitDy=0;" edge="1" parent="WIyWlLk6GJQsqaUBKTNV-1" source="rXzRcfoX-HvQge2d-3iK-138" target="rXzRcfoX-HvQge2d-3iK-113">
          <mxGeometry relative="1" as="geometry">
            <mxPoint x="210" y="1230" as="sourcePoint" />
            <mxPoint x="210" y="1210" as="targetPoint" />
            <Array as="points">
              <mxPoint x="200" y="1240" />
              <mxPoint x="280" y="1240" />
              <mxPoint x="280" y="870" />
            </Array>
          </mxGeometry>
        </mxCell>
        <mxCell id="rXzRcfoX-HvQge2d-3iK-157" style="edgeStyle=orthogonalEdgeStyle;rounded=0;orthogonalLoop=1;jettySize=auto;html=1;entryX=0.613;entryY=1.013;entryDx=0;entryDy=0;entryPerimeter=0;exitX=0.613;exitY=0;exitDx=0;exitDy=0;exitPerimeter=0;" edge="1" parent="WIyWlLk6GJQsqaUBKTNV-1" source="rXzRcfoX-HvQge2d-3iK-133" target="rXzRcfoX-HvQge2d-3iK-107">
          <mxGeometry relative="1" as="geometry">
            <mxPoint x="160" y="1110" as="sourcePoint" />
            <mxPoint x="139.5" y="1119.48" as="targetPoint" />
            <Array as="points">
              <mxPoint x="138" y="1080" />
              <mxPoint x="138" y="1080" />
            </Array>
          </mxGeometry>
        </mxCell>
        <mxCell id="rXzRcfoX-HvQge2d-3iK-158" value="공지 클릭" style="text;html=1;strokeColor=none;fillColor=none;align=center;verticalAlign=middle;whiteSpace=wrap;rounded=0;labelBackgroundColor=none;" vertex="1" parent="WIyWlLk6GJQsqaUBKTNV-1">
          <mxGeometry x="40" y="1040" width="60" height="30" as="geometry" />
        </mxCell>
        <mxCell id="rXzRcfoX-HvQge2d-3iK-159" value="뒤로가기 &lt;br&gt;클릭" style="text;html=1;strokeColor=none;fillColor=none;align=center;verticalAlign=middle;whiteSpace=wrap;rounded=0;labelBackgroundColor=none;" vertex="1" parent="WIyWlLk6GJQsqaUBKTNV-1">
          <mxGeometry x="140" y="1040" width="60" height="30" as="geometry" />
        </mxCell>
        <mxCell id="rXzRcfoX-HvQge2d-3iK-161" value="뒤로가기 &lt;br&gt;클릭" style="text;html=1;strokeColor=none;fillColor=none;align=center;verticalAlign=middle;whiteSpace=wrap;rounded=0;labelBackgroundColor=none;" vertex="1" parent="WIyWlLk6GJQsqaUBKTNV-1">
          <mxGeometry x="210" y="1250" width="60" height="30" as="geometry" />
        </mxCell>
        <mxCell id="rXzRcfoX-HvQge2d-3iK-162" value="공지 클릭" style="text;html=1;strokeColor=none;fillColor=none;align=center;verticalAlign=middle;whiteSpace=wrap;rounded=0;labelBackgroundColor=none;" vertex="1" parent="WIyWlLk6GJQsqaUBKTNV-1">
          <mxGeometry x="230" y="800" width="60" height="30" as="geometry" />
        </mxCell>
        <mxCell id="rXzRcfoX-HvQge2d-3iK-163" value="마이페이지/비밀번호" style="swimlane;fontStyle=0;align=center;verticalAlign=middle;childLayout=stackLayout;horizontal=1;startSize=26;horizontalStack=0;resizeParent=1;resizeLast=0;collapsible=1;marginBottom=0;rounded=0;shadow=0;strokeWidth=1;fillColor=none;swimlaneFillColor=none;labelBackgroundColor=none;" vertex="1" parent="WIyWlLk6GJQsqaUBKTNV-1">
          <mxGeometry x="320" y="1120" width="160" height="240" as="geometry">
            <mxRectangle x="40" y="70" width="160" height="26" as="alternateBounds" />
          </mxGeometry>
        </mxCell>
        <mxCell id="rXzRcfoX-HvQge2d-3iK-195" value="뒤로가기" style="rounded=0;whiteSpace=wrap;html=1;labelBackgroundColor=none;fillColor=none;" vertex="1" parent="rXzRcfoX-HvQge2d-3iK-163">
          <mxGeometry y="26" width="160" height="24" as="geometry" />
        </mxCell>
        <mxCell id="rXzRcfoX-HvQge2d-3iK-166" value="현재 비밀번호:&lt;br&gt;변경할 비밀번호:&lt;br&gt;변경할 비밀번호 확인:" style="rounded=0;whiteSpace=wrap;html=1;labelBackgroundColor=none;fillColor=none;" vertex="1" parent="rXzRcfoX-HvQge2d-3iK-163">
          <mxGeometry y="50" width="160" height="150" as="geometry" />
        </mxCell>
        <mxCell id="rXzRcfoX-HvQge2d-3iK-194" value="비밀번호 변경 확인" style="rounded=0;whiteSpace=wrap;html=1;labelBackgroundColor=none;fillColor=none;" vertex="1" parent="rXzRcfoX-HvQge2d-3iK-163">
          <mxGeometry y="200" width="160" height="40" as="geometry" />
        </mxCell>
        <mxCell id="rXzRcfoX-HvQge2d-3iK-172" value="마이페이지/관심분야" style="swimlane;fontStyle=0;align=center;verticalAlign=middle;childLayout=stackLayout;horizontal=1;startSize=26;horizontalStack=0;resizeParent=1;resizeLast=0;collapsible=1;marginBottom=0;rounded=0;shadow=0;strokeWidth=1;fillColor=none;swimlaneFillColor=none;labelBackgroundColor=none;" vertex="1" parent="WIyWlLk6GJQsqaUBKTNV-1">
          <mxGeometry x="600" y="1120" width="160" height="240" as="geometry">
            <mxRectangle x="40" y="70" width="160" height="26" as="alternateBounds" />
          </mxGeometry>
        </mxCell>
        <mxCell id="rXzRcfoX-HvQge2d-3iK-200" value="뒤로가기" style="rounded=0;whiteSpace=wrap;html=1;labelBackgroundColor=none;fillColor=none;" vertex="1" parent="rXzRcfoX-HvQge2d-3iK-172">
          <mxGeometry y="26" width="160" height="24" as="geometry" />
        </mxCell>
        <mxCell id="rXzRcfoX-HvQge2d-3iK-173" value="설정된 관심분야 리스트" style="rounded=0;whiteSpace=wrap;html=1;labelBackgroundColor=none;fillColor=none;" vertex="1" parent="rXzRcfoX-HvQge2d-3iK-172">
          <mxGeometry y="50" width="160" height="54" as="geometry" />
        </mxCell>
        <mxCell id="rXzRcfoX-HvQge2d-3iK-174" value="설정되지 않은 관심분야 리스트" style="rounded=0;whiteSpace=wrap;html=1;labelBackgroundColor=none;fillColor=none;" vertex="1" parent="rXzRcfoX-HvQge2d-3iK-172">
          <mxGeometry y="104" width="160" height="96" as="geometry" />
        </mxCell>
        <mxCell id="rXzRcfoX-HvQge2d-3iK-175" value="관심분야 저장하기" style="rounded=0;whiteSpace=wrap;html=1;labelBackgroundColor=none;fillColor=none;" vertex="1" parent="rXzRcfoX-HvQge2d-3iK-172">
          <mxGeometry y="200" width="160" height="40" as="geometry" />
        </mxCell>
        <mxCell id="rXzRcfoX-HvQge2d-3iK-181" style="edgeStyle=orthogonalEdgeStyle;rounded=0;orthogonalLoop=1;jettySize=auto;html=1;exitX=0.25;exitY=0;exitDx=0;exitDy=0;entryX=0.75;entryY=0;entryDx=0;entryDy=0;strokeColor=default;" edge="1" parent="WIyWlLk6GJQsqaUBKTNV-1" source="rXzRcfoX-HvQge2d-3iK-111" target="rXzRcfoX-HvQge2d-3iK-100">
          <mxGeometry relative="1" as="geometry">
            <mxPoint x="363.53999999999996" y="649.52" as="sourcePoint" />
            <mxPoint x="140" y="760" as="targetPoint" />
            <Array as="points">
              <mxPoint x="360" y="760" />
              <mxPoint x="360" y="720" />
              <mxPoint x="160" y="720" />
            </Array>
          </mxGeometry>
        </mxCell>
        <mxCell id="rXzRcfoX-HvQge2d-3iK-182" style="edgeStyle=orthogonalEdgeStyle;rounded=0;orthogonalLoop=1;jettySize=auto;html=1;exitX=0.25;exitY=0;exitDx=0;exitDy=0;entryX=0.75;entryY=0;entryDx=0;entryDy=0;" edge="1" parent="WIyWlLk6GJQsqaUBKTNV-1">
          <mxGeometry relative="1" as="geometry">
            <mxPoint x="640" y="760" as="sourcePoint" />
            <mxPoint x="440" y="760" as="targetPoint" />
            <Array as="points">
              <mxPoint x="640" y="720" />
              <mxPoint x="440" y="720" />
            </Array>
          </mxGeometry>
        </mxCell>
        <mxCell id="rXzRcfoX-HvQge2d-3iK-184" style="edgeStyle=orthogonalEdgeStyle;rounded=0;orthogonalLoop=1;jettySize=auto;html=1;exitX=0.25;exitY=0;exitDx=0;exitDy=0;entryX=0.75;entryY=0;entryDx=0;entryDy=0;strokeColor=default;" edge="1" parent="WIyWlLk6GJQsqaUBKTNV-1">
          <mxGeometry relative="1" as="geometry">
            <mxPoint x="160" y="760" as="sourcePoint" />
            <mxPoint x="360" y="760" as="targetPoint" />
            <Array as="points">
              <mxPoint x="160" y="720" />
              <mxPoint x="360" y="720" />
              <mxPoint x="360" y="760" />
            </Array>
          </mxGeometry>
        </mxCell>
        <mxCell id="rXzRcfoX-HvQge2d-3iK-185" style="edgeStyle=orthogonalEdgeStyle;rounded=0;orthogonalLoop=1;jettySize=auto;html=1;exitX=0.25;exitY=0;exitDx=0;exitDy=0;entryX=0.75;entryY=0;entryDx=0;entryDy=0;strokeColor=default;" edge="1" parent="WIyWlLk6GJQsqaUBKTNV-1">
          <mxGeometry relative="1" as="geometry">
            <mxPoint x="440" y="760" as="sourcePoint" />
            <mxPoint x="640" y="760" as="targetPoint" />
            <Array as="points">
              <mxPoint x="440" y="720" />
              <mxPoint x="640" y="720" />
              <mxPoint x="640" y="760" />
            </Array>
          </mxGeometry>
        </mxCell>
        <mxCell id="rXzRcfoX-HvQge2d-3iK-186" style="edgeStyle=orthogonalEdgeStyle;rounded=0;orthogonalLoop=1;jettySize=auto;html=1;exitX=0.25;exitY=0;exitDx=0;exitDy=0;strokeColor=default;" edge="1" parent="WIyWlLk6GJQsqaUBKTNV-1">
          <mxGeometry relative="1" as="geometry">
            <mxPoint x="80" y="760" as="sourcePoint" />
            <mxPoint x="720" y="760" as="targetPoint" />
            <Array as="points">
              <mxPoint x="80" y="660" />
              <mxPoint x="720" y="660" />
            </Array>
          </mxGeometry>
        </mxCell>
        <mxCell id="rXzRcfoX-HvQge2d-3iK-187" style="edgeStyle=orthogonalEdgeStyle;rounded=0;orthogonalLoop=1;jettySize=auto;html=1;exitX=0.25;exitY=0;exitDx=0;exitDy=0;strokeColor=default;" edge="1" parent="WIyWlLk6GJQsqaUBKTNV-1">
          <mxGeometry relative="1" as="geometry">
            <mxPoint x="720" y="760" as="sourcePoint" />
            <mxPoint x="80" y="760" as="targetPoint" />
            <Array as="points">
              <mxPoint x="720" y="660" />
              <mxPoint x="80" y="660" />
            </Array>
          </mxGeometry>
        </mxCell>
        <mxCell id="rXzRcfoX-HvQge2d-3iK-188" value="하단 nav를 이용하여 상호 이동" style="text;html=1;strokeColor=none;fillColor=none;align=center;verticalAlign=middle;whiteSpace=wrap;rounded=0;labelBackgroundColor=none;" vertex="1" parent="WIyWlLk6GJQsqaUBKTNV-1">
          <mxGeometry x="220" y="730" width="60" height="30" as="geometry" />
        </mxCell>
        <mxCell id="rXzRcfoX-HvQge2d-3iK-192" value="하단 nav를 이용하여 상호 이동" style="text;html=1;strokeColor=none;fillColor=none;align=center;verticalAlign=middle;whiteSpace=wrap;rounded=0;labelBackgroundColor=none;" vertex="1" parent="WIyWlLk6GJQsqaUBKTNV-1">
          <mxGeometry x="510" y="730" width="60" height="30" as="geometry" />
        </mxCell>
        <mxCell id="rXzRcfoX-HvQge2d-3iK-193" value="하단 nav를 이용하여 상호 이동" style="text;html=1;strokeColor=none;fillColor=none;align=center;verticalAlign=middle;whiteSpace=wrap;rounded=0;labelBackgroundColor=none;" vertex="1" parent="WIyWlLk6GJQsqaUBKTNV-1">
          <mxGeometry x="570" y="620" width="60" height="30" as="geometry" />
        </mxCell>
        <mxCell id="rXzRcfoX-HvQge2d-3iK-196" style="edgeStyle=orthogonalEdgeStyle;rounded=0;orthogonalLoop=1;jettySize=auto;html=1;exitX=0;exitY=0.75;exitDx=0;exitDy=0;" edge="1" parent="WIyWlLk6GJQsqaUBKTNV-1">
          <mxGeometry relative="1" as="geometry">
            <mxPoint x="600" y="830" as="sourcePoint" />
            <mxPoint x="480" y="1203.5" as="targetPoint" />
            <Array as="points">
              <mxPoint x="520" y="830.5" />
              <mxPoint x="520" y="1203.5" />
            </Array>
          </mxGeometry>
        </mxCell>
        <mxCell id="rXzRcfoX-HvQge2d-3iK-197" style="edgeStyle=orthogonalEdgeStyle;rounded=0;orthogonalLoop=1;jettySize=auto;html=1;entryX=0;entryY=1;entryDx=0;entryDy=0;exitX=1;exitY=0.25;exitDx=0;exitDy=0;" edge="1" parent="WIyWlLk6GJQsqaUBKTNV-1">
          <mxGeometry relative="1" as="geometry">
            <mxPoint x="480" y="1225.5" as="sourcePoint" />
            <mxPoint x="600" y="870" as="targetPoint" />
            <Array as="points">
              <mxPoint x="480" y="1240" />
              <mxPoint x="560" y="1240" />
              <mxPoint x="560" y="870" />
            </Array>
          </mxGeometry>
        </mxCell>
        <mxCell id="rXzRcfoX-HvQge2d-3iK-198" value="비밀번호 &lt;br&gt;&lt;span style=&quot;color: rgba(0, 0, 0, 0); font-family: monospace; font-size: 0px; text-align: start;&quot;&gt;%3CmxGraphModel%3E%3Croot%3E%3CmxCell%20id%3D%220%22%2F%3E%3CmxCell%20id%3D%221%22%20parent%3D%220%22%2F%3E%3CmxCell%20id%3D%222%22%20value%3D%22%EA%B3%B5%EC%A7%80%20%ED%81%B4%EB%A6%AD%22%20style%3D%22text%3Bhtml%3D1%3BstrokeColor%3Dnone%3BfillColor%3Dnone%3Balign%3Dcenter%3BverticalAlign%3Dmiddle%3BwhiteSpace%3Dwrap%3Brounded%3D0%3BlabelBackgroundColor%3Dnone%3B%22%20vertex%3D%221%22%20parent%3D%221%22%3E%3CmxGeometry%20x%3D%22230%22%20y%3D%22800%22%20width%3D%2260%22%20height%3D%2230%22%20as%3D%22geometry%22%2F%3E%3C%2FmxCell%3E%3C%2Froot%3E%3C%2FmxGraphModel%3E&lt;/span&gt;변경 클릭" style="text;html=1;strokeColor=none;fillColor=none;align=center;verticalAlign=middle;whiteSpace=wrap;rounded=0;labelBackgroundColor=none;" vertex="1" parent="WIyWlLk6GJQsqaUBKTNV-1">
          <mxGeometry x="530" y="800" width="60" height="30" as="geometry" />
        </mxCell>
        <mxCell id="rXzRcfoX-HvQge2d-3iK-199" value="뒤로가기&lt;br&gt;클릭" style="text;html=1;strokeColor=none;fillColor=none;align=center;verticalAlign=middle;whiteSpace=wrap;rounded=0;labelBackgroundColor=none;" vertex="1" parent="WIyWlLk6GJQsqaUBKTNV-1">
          <mxGeometry x="490" y="1250" width="60" height="30" as="geometry" />
        </mxCell>
        <mxCell id="rXzRcfoX-HvQge2d-3iK-202" style="edgeStyle=orthogonalEdgeStyle;rounded=0;orthogonalLoop=1;jettySize=auto;html=1;exitX=0.5;exitY=1.013;exitDx=0;exitDy=0;exitPerimeter=0;entryX=0.5;entryY=0;entryDx=0;entryDy=0;" edge="1" parent="WIyWlLk6GJQsqaUBKTNV-1">
          <mxGeometry relative="1" as="geometry">
            <mxPoint x="660" y="1000" as="sourcePoint" />
            <mxPoint x="660" y="1119.48" as="targetPoint" />
            <Array as="points">
              <mxPoint x="660" y="1029.48" />
              <mxPoint x="660" y="1029.48" />
            </Array>
          </mxGeometry>
        </mxCell>
        <mxCell id="rXzRcfoX-HvQge2d-3iK-203" style="edgeStyle=orthogonalEdgeStyle;rounded=0;orthogonalLoop=1;jettySize=auto;html=1;entryX=0.613;entryY=1.013;entryDx=0;entryDy=0;entryPerimeter=0;exitX=0.613;exitY=0;exitDx=0;exitDy=0;exitPerimeter=0;" edge="1" parent="WIyWlLk6GJQsqaUBKTNV-1">
          <mxGeometry relative="1" as="geometry">
            <mxPoint x="699.9999999999999" y="1120" as="sourcePoint" />
            <mxPoint x="699.9999999999999" y="1000.52" as="targetPoint" />
            <Array as="points">
              <mxPoint x="699.92" y="1080" />
              <mxPoint x="699.92" y="1080" />
            </Array>
          </mxGeometry>
        </mxCell>
        <mxCell id="rXzRcfoX-HvQge2d-3iK-204" value="관심분야 &lt;br&gt;설정 클릭" style="text;html=1;strokeColor=none;fillColor=none;align=center;verticalAlign=middle;whiteSpace=wrap;rounded=0;labelBackgroundColor=none;" vertex="1" parent="WIyWlLk6GJQsqaUBKTNV-1">
          <mxGeometry x="600" y="1040" width="60" height="30" as="geometry" />
        </mxCell>
        <mxCell id="rXzRcfoX-HvQge2d-3iK-205" value="관심분야 &lt;br&gt;설정 클릭&lt;br&gt;/&lt;br&gt;뒤로가기 &lt;br&gt;클릭" style="text;html=1;strokeColor=none;fillColor=none;align=center;verticalAlign=middle;whiteSpace=wrap;rounded=0;labelBackgroundColor=none;" vertex="1" parent="WIyWlLk6GJQsqaUBKTNV-1">
          <mxGeometry x="710" y="1050" width="60" height="30" as="geometry" />
        </mxCell>
        <mxCell id="rXzRcfoX-HvQge2d-3iK-206" style="edgeStyle=orthogonalEdgeStyle;rounded=0;orthogonalLoop=1;jettySize=auto;html=1;exitX=0.5;exitY=1;exitDx=0;exitDy=0;entryX=0;entryY=0.5;entryDx=0;entryDy=0;strokeColor=default;" edge="1" parent="WIyWlLk6GJQsqaUBKTNV-1" source="rXzRcfoX-HvQge2d-3iK-194" target="rXzRcfoX-HvQge2d-3iK-68">
          <mxGeometry relative="1" as="geometry" />
        </mxCell>
        <mxCell id="rXzRcfoX-HvQge2d-3iK-207" value="비밀번호 &lt;br&gt;변경 확인 클릭" style="text;html=1;strokeColor=none;fillColor=none;align=center;verticalAlign=middle;whiteSpace=wrap;rounded=0;labelBackgroundColor=none;" vertex="1" parent="WIyWlLk6GJQsqaUBKTNV-1">
          <mxGeometry x="210" y="1390" width="60" height="30" as="geometry" />
        </mxCell>
      </root>
    </mxGraphModel>
  </diagram>
</mxfile>
